<?xml version="1.0" encoding="UTF-8"?>
<svg id="Calque_2" data-name="Calque 2" xmlns="http://www.w3.org/2000/svg" viewBox="0 0 400 600">
  <defs>
    <style>
      .cls-1 {
        fill: #00b300;
      }

      .cls-1, .cls-2, .cls-3, .cls-4, .cls-5, .cls-6, .cls-7, .cls-8 {
        stroke-miterlimit: 10;
      }

      .cls-1, .cls-2, .cls-3, .cls-5, .cls-7, .cls-8 {
        stroke-width: 10px;
      }

      .cls-1, .cls-3, .cls-4, .cls-5, .cls-6, .cls-8 {
        stroke: #000;
      }

      .cls-9 {
        font-family: FranklinGothic-Heavy, 'Franklin Gothic Heavy';
        font-weight: 800;
      }

      .cls-2, .cls-10, .cls-4, .cls-6, .cls-7 {
        fill: #fff;
      }

      .cls-2, .cls-6 {
        font-size: 85.29px;
      }

      .cls-2, .cls-7 {
        stroke: #fff;
      }

      .cls-3 {
        fill: blue;
      }

      .cls-4, .cls-6 {
        stroke-width: 4px;
      }

      .cls-5 {
        fill: red;
      }

      .cls-8 {
        fill: #ffca00;
      }

      .cls-11 {
        font-family: MotorOil1937M54, 'Motor Oil 1937 M54';
      }
    </style>
  </defs>
  <g id="Calque_5" data-name="Calque 5">
    <g>
      <g>
        <g>
          <g>
            <rect x="10" y="10" width="380" height="580" rx="25" ry="25"/>
            <path class="cls-10" d="M365,20c8.27,0,15,6.73,15,15v530c0,8.27-6.73,15-15,15H35c-8.27,0-15-6.73-15-15V35c0-8.27,6.73-15,15-15h330M365,0H35C15.67,0,0,15.67,0,35v530c0,19.33,15.67,35,35,35h330c19.33,0,35-15.67,35-35V35c0-19.33-15.67-35-35-35h0Z"/>
          </g>
          <g>
            <path class="cls-10" d="M111.96,546.59c-15.57,0-29.82-3.51-42.34-10.42-33.74-18.63-52.49-60.36-52.78-117.51-.3-58.73,18.91-126.17,54.1-189.9,28.74-52.06,65.2-96.42,105.42-128.27,38.33-30.35,77.99-47.06,111.68-47.06,15.57,0,29.82,3.51,42.34,10.42,33.74,18.63,52.49,60.36,52.78,117.51.3,58.73-18.91,126.17-54.1,189.9-28.74,52.06-65.2,96.42-105.42,128.27-38.33,30.35-77.99,47.06-111.68,47.06Z"/>
            <path class="cls-10" d="M288.04,60.91c14.29,0,27.32,3.19,38.72,9.49,15.38,8.49,27.43,22.35,35.81,41.18,8.55,19.23,12.96,42.72,13.1,69.8.14,27.78-4.22,57.75-12.97,89.09-9.14,32.71-22.66,65.4-40.19,97.15-28.27,51.2-64.06,94.77-103.51,126.01-37.01,29.31-75.02,45.44-107.02,45.44-14.29,0-27.32-3.19-38.72-9.49-15.38-8.49-27.43-22.35-35.81-41.18-8.55-19.24-12.96-42.72-13.1-69.8-.14-27.78,4.22-57.75,12.97-89.09,9.14-32.71,22.66-65.4,40.19-97.15,28.27-51.2,64.06-94.77,103.51-126.01,37.01-29.31,75.02-45.44,107.02-45.44M288.04,45.91c-72.24,0-163.43,70.09-223.67,179.21-74.01,134.06-73.28,276.26,1.63,317.61,13.94,7.69,29.46,11.35,45.97,11.35,72.24,0,163.43-70.09,223.67-179.21,74.01-134.06,73.28-276.26-1.63-317.61-13.94-7.69-29.46-11.35-45.97-11.35h0Z"/>
          </g>
        </g>
        <g>
          <g>
            <text class="cls-2" transform="translate(28.77 110.72)"><tspan class="cls-9" x="0" y="0">+</tspan><tspan class="cls-11" x="50.01" y="0">4</tspan></text>
            <g>
              <polygon class="cls-7" points="74.79 76.4 74.79 86.94 59.38 86.94 59.38 102.93 48.76 102.93 48.76 86.94 33.35 86.94 33.35 76.4 48.76 76.4 48.76 60.41 59.38 60.41 59.38 76.4 74.79 76.4"/>
              <path class="cls-7" d="M112.81,75.78l-9.79,12.45h9.79v-12.45ZM112.81,98.39h-29.98l1.96-2.71,40.23-51.14v43.68h7.2v10.16h-7.2v11.99h-12.2v-11.99Z"/>
            </g>
            <g>
              <polygon class="cls-7" points="75.09 76.06 75.09 86.59 59.68 86.59 59.68 102.58 49.06 102.58 49.06 86.59 33.65 86.59 33.65 76.06 49.06 76.06 49.06 60.07 59.68 60.07 59.68 76.06 75.09 76.06"/>
              <path class="cls-7" d="M113.11,75.43l-9.79,12.45h9.79v-12.45ZM113.11,98.05h-29.98l1.96-2.71,40.23-51.14v43.68h7.2v10.16h-7.2v11.99h-12.2v-11.99Z"/>
            </g>
            <g>
              <polygon class="cls-7" points="75.39 75.71 75.39 86.25 59.98 86.25 59.98 102.24 49.36 102.24 49.36 86.25 33.95 86.25 33.95 75.71 49.36 75.71 49.36 59.72 59.98 59.72 59.98 75.71 75.39 75.71"/>
              <path class="cls-7" d="M113.41,75.09l-9.79,12.45h9.79v-12.45ZM113.41,97.7h-29.98l1.96-2.71,40.23-51.14v43.68h7.2v10.16h-7.2v11.99h-12.2v-11.99Z"/>
            </g>
            <g>
              <polygon class="cls-7" points="75.69 75.37 75.69 85.91 60.28 85.91 60.28 101.9 49.66 101.9 49.66 85.91 34.25 85.91 34.25 75.37 49.66 75.37 49.66 59.38 60.28 59.38 60.28 75.37 75.69 75.37"/>
              <path class="cls-7" d="M113.71,74.75l-9.79,12.45h9.79v-12.45ZM113.71,97.36h-29.98l1.96-2.71,40.23-51.14v43.68h7.2v10.16h-7.2v11.99h-12.2v-11.99Z"/>
            </g>
            <g>
              <polygon class="cls-7" points="75.98 75.03 75.98 85.57 60.58 85.57 60.58 101.56 49.96 101.56 49.96 85.57 34.55 85.57 34.55 75.03 49.96 75.03 49.96 59.04 60.58 59.04 60.58 75.03 75.98 75.03"/>
              <path class="cls-7" d="M114,74.41l-9.79,12.45h9.79v-12.45ZM114,97.02h-29.98l1.96-2.71,40.23-51.14v43.68h7.2v10.16h-7.2v11.99h-12.2v-11.99Z"/>
            </g>
            <g>
              <polygon class="cls-7" points="76.28 74.69 76.28 85.22 60.87 85.22 60.87 101.22 50.25 101.22 50.25 85.22 34.85 85.22 34.85 74.69 50.25 74.69 50.25 58.7 60.87 58.7 60.87 74.69 76.28 74.69"/>
              <path class="cls-7" d="M114.3,74.06l-9.79,12.45h9.79v-12.45ZM114.3,96.68h-29.98l1.96-2.71,40.23-51.14v43.68h7.2v10.16h-7.2v11.99h-12.2v-11.99Z"/>
            </g>
            <g>
              <polygon class="cls-7" points="76.58 74.35 76.58 84.88 61.17 84.88 61.17 100.87 50.55 100.87 50.55 84.88 35.14 84.88 35.14 74.35 50.55 74.35 50.55 58.36 61.17 58.36 61.17 74.35 76.58 74.35"/>
              <path class="cls-7" d="M114.6,73.72l-9.79,12.45h9.79v-12.45ZM114.6,96.33h-29.98l1.96-2.71,40.23-51.14v43.68h7.2v10.16h-7.2v11.99h-12.2v-11.99Z"/>
            </g>
            <g>
              <polygon class="cls-7" points="76.88 74 76.88 84.54 61.47 84.54 61.47 100.53 50.85 100.53 50.85 84.54 35.44 84.54 35.44 74 50.85 74 50.85 58.01 61.47 58.01 61.47 74 76.88 74"/>
              <path class="cls-7" d="M114.9,73.38l-9.79,12.45h9.79v-12.45ZM114.9,95.99h-29.98l1.96-2.71,40.23-51.14v43.68h7.2v10.16h-7.2v11.99h-12.2v-11.99Z"/>
            </g>
            <g>
              <polygon class="cls-7" points="77.18 73.66 77.18 84.2 61.77 84.2 61.77 100.19 51.15 100.19 51.15 84.2 35.74 84.2 35.74 73.66 51.15 73.66 51.15 57.67 61.77 57.67 61.77 73.66 77.18 73.66"/>
              <path class="cls-7" d="M115.2,73.04l-9.79,12.45h9.79v-12.45ZM115.2,95.65h-29.98l1.96-2.71,40.23-51.14v43.68h7.2v10.16h-7.2v11.99h-12.2v-11.99Z"/>
            </g>
            <g>
              <polygon class="cls-7" points="77.47 73.32 77.47 83.85 62.07 83.85 62.07 99.85 51.45 99.85 51.45 83.85 36.04 83.85 36.04 73.32 51.45 73.32 51.45 57.33 62.07 57.33 62.07 73.32 77.47 73.32"/>
              <path class="cls-7" d="M115.49,72.69l-9.79,12.45h9.79v-12.45ZM115.49,95.31h-29.98l1.96-2.71,40.23-51.14v43.68h7.2v10.16h-7.2v11.99h-12.2v-11.99Z"/>
            </g>
            <text class="cls-2" transform="translate(32.05 106.96)"><tspan class="cls-9" x="0" y="0">+</tspan><tspan class="cls-11" x="50.01" y="0">4</tspan></text>
          </g>
          <g>
            <text class="cls-6" transform="translate(28.77 110.72)"><tspan class="cls-9" x="0" y="0">+</tspan><tspan class="cls-11" x="50.01" y="0">4</tspan></text>
            <g>
              <polygon class="cls-4" points="74.79 76.4 74.79 86.94 59.38 86.94 59.38 102.93 48.76 102.93 48.76 86.94 33.35 86.94 33.35 76.4 48.76 76.4 48.76 60.41 59.38 60.41 59.38 76.4 74.79 76.4"/>
              <path class="cls-4" d="M112.81,75.78l-9.79,12.45h9.79v-12.45ZM112.81,98.39h-29.98l1.96-2.71,40.23-51.14v43.68h7.2v10.16h-7.2v11.99h-12.2v-11.99Z"/>
            </g>
            <g>
              <polygon class="cls-4" points="75.09 76.06 75.09 86.59 59.68 86.59 59.68 102.58 49.06 102.58 49.06 86.59 33.65 86.59 33.65 76.06 49.06 76.06 49.06 60.07 59.68 60.07 59.68 76.06 75.09 76.06"/>
              <path class="cls-4" d="M113.11,75.43l-9.79,12.45h9.79v-12.45ZM113.11,98.05h-29.98l1.96-2.71,40.23-51.14v43.68h7.2v10.16h-7.2v11.99h-12.2v-11.99Z"/>
            </g>
            <g>
              <polygon class="cls-4" points="75.39 75.71 75.39 86.25 59.98 86.25 59.98 102.24 49.36 102.24 49.36 86.25 33.95 86.25 33.95 75.71 49.36 75.71 49.36 59.72 59.98 59.72 59.98 75.71 75.39 75.71"/>
              <path class="cls-4" d="M113.41,75.09l-9.79,12.45h9.79v-12.45ZM113.41,97.7h-29.98l1.96-2.71,40.23-51.14v43.68h7.2v10.16h-7.2v11.99h-12.2v-11.99Z"/>
            </g>
            <g>
              <polygon class="cls-4" points="75.69 75.37 75.69 85.91 60.28 85.91 60.28 101.9 49.66 101.9 49.66 85.91 34.25 85.91 34.25 75.37 49.66 75.37 49.66 59.38 60.28 59.38 60.28 75.37 75.69 75.37"/>
              <path class="cls-4" d="M113.71,74.75l-9.79,12.45h9.79v-12.45ZM113.71,97.36h-29.98l1.96-2.71,40.23-51.14v43.68h7.2v10.16h-7.2v11.99h-12.2v-11.99Z"/>
            </g>
            <g>
              <polygon class="cls-4" points="75.98 75.03 75.98 85.57 60.58 85.57 60.58 101.56 49.96 101.56 49.96 85.57 34.55 85.57 34.55 75.03 49.96 75.03 49.96 59.04 60.58 59.04 60.58 75.03 75.98 75.03"/>
              <path class="cls-4" d="M114,74.41l-9.79,12.45h9.79v-12.45ZM114,97.02h-29.98l1.96-2.71,40.23-51.14v43.68h7.2v10.16h-7.2v11.99h-12.2v-11.99Z"/>
            </g>
            <g>
              <polygon class="cls-4" points="76.28 74.69 76.28 85.22 60.87 85.22 60.87 101.22 50.25 101.22 50.25 85.22 34.85 85.22 34.85 74.69 50.25 74.69 50.25 58.7 60.87 58.7 60.87 74.69 76.28 74.69"/>
              <path class="cls-4" d="M114.3,74.06l-9.79,12.45h9.79v-12.45ZM114.3,96.68h-29.98l1.96-2.71,40.23-51.14v43.68h7.2v10.16h-7.2v11.99h-12.2v-11.99Z"/>
            </g>
            <g>
              <polygon class="cls-4" points="76.58 74.35 76.58 84.88 61.17 84.88 61.17 100.87 50.55 100.87 50.55 84.88 35.14 84.88 35.14 74.35 50.55 74.35 50.55 58.36 61.17 58.36 61.17 74.35 76.58 74.35"/>
              <path class="cls-4" d="M114.6,73.72l-9.79,12.45h9.79v-12.45ZM114.6,96.33h-29.98l1.96-2.71,40.23-51.14v43.68h7.2v10.16h-7.2v11.99h-12.2v-11.99Z"/>
            </g>
            <g>
              <polygon class="cls-4" points="76.88 74 76.88 84.54 61.47 84.54 61.47 100.53 50.85 100.53 50.85 84.54 35.44 84.54 35.44 74 50.85 74 50.85 58.01 61.47 58.01 61.47 74 76.88 74"/>
              <path class="cls-4" d="M114.9,73.38l-9.79,12.45h9.79v-12.45ZM114.9,95.99h-29.98l1.96-2.71,40.23-51.14v43.68h7.2v10.16h-7.2v11.99h-12.2v-11.99Z"/>
            </g>
            <g>
              <polygon class="cls-4" points="77.18 73.66 77.18 84.2 61.77 84.2 61.77 100.19 51.15 100.19 51.15 84.2 35.74 84.2 35.74 73.66 51.15 73.66 51.15 57.67 61.77 57.67 61.77 73.66 77.18 73.66"/>
              <path class="cls-4" d="M115.2,73.04l-9.79,12.45h9.79v-12.45ZM115.2,95.65h-29.98l1.96-2.71,40.23-51.14v43.68h7.2v10.16h-7.2v11.99h-12.2v-11.99Z"/>
            </g>
            <g>
              <polygon class="cls-4" points="77.47 73.32 77.47 83.85 62.07 83.85 62.07 99.85 51.45 99.85 51.45 83.85 36.04 83.85 36.04 73.32 51.45 73.32 51.45 57.33 62.07 57.33 62.07 73.32 77.47 73.32"/>
              <path class="cls-4" d="M115.49,72.69l-9.79,12.45h9.79v-12.45ZM115.49,95.31h-29.98l1.96-2.71,40.23-51.14v43.68h7.2v10.16h-7.2v11.99h-12.2v-11.99Z"/>
            </g>
            <text class="cls-6" transform="translate(32.05 106.96)"><tspan class="cls-9" x="0" y="0">+</tspan><tspan class="cls-11" x="50.01" y="0">4</tspan></text>
          </g>
        </g>
        <g>
          <g>
            <text class="cls-2" transform="translate(371.23 489.28) rotate(-180)"><tspan class="cls-9" x="0" y="0">+</tspan><tspan class="cls-11" x="50.01" y="0">4</tspan></text>
            <g>
              <polygon class="cls-7" points="325.21 523.6 325.21 513.06 340.62 513.06 340.62 497.07 351.24 497.07 351.24 513.06 366.65 513.06 366.65 523.6 351.24 523.6 351.24 539.59 340.62 539.59 340.62 523.6 325.21 523.6"/>
              <path class="cls-7" d="M287.19,524.22l9.79-12.45h-9.79v12.45ZM287.19,501.61h29.98l-1.96,2.71-40.23,51.14v-43.68h-7.2v-10.16h7.2v-11.99h12.2v11.99Z"/>
            </g>
            <g>
              <polygon class="cls-7" points="324.91 523.94 324.91 513.41 340.32 513.41 340.32 497.42 350.94 497.42 350.94 513.41 366.35 513.41 366.35 523.94 350.94 523.94 350.94 539.93 340.32 539.93 340.32 523.94 324.91 523.94"/>
              <path class="cls-7" d="M286.89,524.57l9.79-12.45h-9.79v12.45ZM286.89,501.95h29.98l-1.96,2.71-40.23,51.14v-43.68h-7.2v-10.16h7.2v-11.99h12.2v11.99Z"/>
            </g>
            <g>
              <polygon class="cls-7" points="324.61 524.28 324.61 513.75 340.02 513.75 340.02 497.76 350.64 497.76 350.64 513.75 366.05 513.75 366.05 524.28 350.64 524.28 350.64 540.28 340.02 540.28 340.02 524.28 324.61 524.28"/>
              <path class="cls-7" d="M286.59,524.91l9.79-12.45h-9.79v12.45ZM286.59,502.3h29.98l-1.96,2.71-40.23,51.14v-43.68h-7.2v-10.16h7.2v-11.99h12.2v11.99Z"/>
            </g>
            <g>
              <polygon class="cls-7" points="324.31 524.63 324.31 514.09 339.72 514.09 339.72 498.1 350.34 498.1 350.34 514.09 365.75 514.09 365.75 524.63 350.34 524.63 350.34 540.62 339.72 540.62 339.72 524.63 324.31 524.63"/>
              <path class="cls-7" d="M286.29,525.25l9.79-12.45h-9.79v12.45ZM286.29,502.64h29.98l-1.96,2.71-40.23,51.14v-43.68h-7.2v-10.16h7.2v-11.99h12.2v11.99Z"/>
            </g>
            <g>
              <polygon class="cls-7" points="324.02 524.97 324.02 514.43 339.42 514.43 339.42 498.44 350.04 498.44 350.04 514.43 365.45 514.43 365.45 524.97 350.04 524.97 350.04 540.96 339.42 540.96 339.42 524.97 324.02 524.97"/>
              <path class="cls-7" d="M286,525.59l9.79-12.45h-9.79v12.45ZM286,502.98h29.98l-1.96,2.71-40.23,51.14v-43.68h-7.2v-10.16h7.2v-11.99h12.2v11.99Z"/>
            </g>
            <g>
              <polygon class="cls-7" points="323.72 525.31 323.72 514.78 339.13 514.78 339.13 498.78 349.75 498.78 349.75 514.78 365.15 514.78 365.15 525.31 349.75 525.31 349.75 541.3 339.13 541.3 339.13 525.31 323.72 525.31"/>
              <path class="cls-7" d="M285.7,525.94l9.79-12.45h-9.79v12.45ZM285.7,503.32h29.98l-1.96,2.71-40.23,51.14v-43.68h-7.2v-10.16h7.2v-11.99h12.2v11.99Z"/>
            </g>
            <g>
              <polygon class="cls-7" points="323.42 525.65 323.42 515.12 338.83 515.12 338.83 499.13 349.45 499.13 349.45 515.12 364.86 515.12 364.86 525.65 349.45 525.65 349.45 541.64 338.83 541.64 338.83 525.65 323.42 525.65"/>
              <path class="cls-7" d="M285.4,526.28l9.79-12.45h-9.79v12.45ZM285.4,503.67h29.98l-1.96,2.71-40.23,51.14v-43.68h-7.2v-10.16h7.2v-11.99h12.2v11.99Z"/>
            </g>
            <g>
              <polygon class="cls-7" points="323.12 526 323.12 515.46 338.53 515.46 338.53 499.47 349.15 499.47 349.15 515.46 364.56 515.46 364.56 526 349.15 526 349.15 541.99 338.53 541.99 338.53 526 323.12 526"/>
              <path class="cls-7" d="M285.1,526.62l9.79-12.45h-9.79v12.45ZM285.1,504.01h29.98l-1.96,2.71-40.23,51.14v-43.68h-7.2v-10.16h7.2v-11.99h12.2v11.99Z"/>
            </g>
            <g>
              <polygon class="cls-7" points="322.82 526.34 322.82 515.8 338.23 515.8 338.23 499.81 348.85 499.81 348.85 515.8 364.26 515.8 364.26 526.34 348.85 526.34 348.85 542.33 338.23 542.33 338.23 526.34 322.82 526.34"/>
              <path class="cls-7" d="M284.8,526.96l9.79-12.45h-9.79v12.45ZM284.8,504.35h29.98l-1.96,2.71-40.23,51.14v-43.68h-7.2v-10.16h7.2v-11.99h12.2v11.99Z"/>
            </g>
            <g>
              <polygon class="cls-7" points="322.53 526.68 322.53 516.14 337.93 516.14 337.93 500.15 348.55 500.15 348.55 516.14 363.96 516.14 363.96 526.68 348.55 526.68 348.55 542.67 337.93 542.67 337.93 526.68 322.53 526.68"/>
              <path class="cls-7" d="M284.51,527.31l9.79-12.45h-9.79v12.45ZM284.51,504.69h29.98l-1.96,2.71-40.23,51.14v-43.68h-7.2v-10.16h7.2v-11.99h12.2v11.99Z"/>
            </g>
            <text class="cls-2" transform="translate(367.95 493.04) rotate(-180)"><tspan class="cls-9" x="0" y="0">+</tspan><tspan class="cls-11" x="50.01" y="0">4</tspan></text>
          </g>
          <g>
            <text class="cls-6" transform="translate(371.23 489.28) rotate(-180)"><tspan class="cls-9" x="0" y="0">+</tspan><tspan class="cls-11" x="50.01" y="0">4</tspan></text>
            <g>
              <polygon class="cls-4" points="325.21 523.6 325.21 513.06 340.62 513.06 340.62 497.07 351.24 497.07 351.24 513.06 366.65 513.06 366.65 523.6 351.24 523.6 351.24 539.59 340.62 539.59 340.62 523.6 325.21 523.6"/>
              <path class="cls-4" d="M287.19,524.22l9.79-12.45h-9.79v12.45ZM287.19,501.61h29.98l-1.96,2.71-40.23,51.14v-43.68h-7.2v-10.16h7.2v-11.99h12.2v11.99Z"/>
            </g>
            <g>
              <polygon class="cls-4" points="324.91 523.94 324.91 513.41 340.32 513.41 340.32 497.42 350.94 497.42 350.94 513.41 366.35 513.41 366.35 523.94 350.94 523.94 350.94 539.93 340.32 539.93 340.32 523.94 324.91 523.94"/>
              <path class="cls-4" d="M286.89,524.57l9.79-12.45h-9.79v12.45ZM286.89,501.95h29.98l-1.96,2.71-40.23,51.14v-43.68h-7.2v-10.16h7.2v-11.99h12.2v11.99Z"/>
            </g>
            <g>
              <polygon class="cls-4" points="324.61 524.28 324.61 513.75 340.02 513.75 340.02 497.76 350.64 497.76 350.64 513.75 366.05 513.75 366.05 524.28 350.64 524.28 350.64 540.28 340.02 540.28 340.02 524.28 324.61 524.28"/>
              <path class="cls-4" d="M286.59,524.91l9.79-12.45h-9.79v12.45ZM286.59,502.3h29.98l-1.96,2.71-40.23,51.14v-43.68h-7.2v-10.16h7.2v-11.99h12.2v11.99Z"/>
            </g>
            <g>
              <polygon class="cls-4" points="324.31 524.63 324.31 514.09 339.72 514.09 339.72 498.1 350.34 498.1 350.34 514.09 365.75 514.09 365.75 524.63 350.34 524.63 350.34 540.62 339.72 540.62 339.72 524.63 324.31 524.63"/>
              <path class="cls-4" d="M286.29,525.25l9.79-12.45h-9.79v12.45ZM286.29,502.64h29.98l-1.96,2.71-40.23,51.14v-43.68h-7.2v-10.16h7.2v-11.99h12.2v11.99Z"/>
            </g>
            <g>
              <polygon class="cls-4" points="324.02 524.97 324.02 514.43 339.42 514.43 339.42 498.44 350.04 498.44 350.04 514.43 365.45 514.43 365.45 524.97 350.04 524.97 350.04 540.96 339.42 540.96 339.42 524.97 324.02 524.97"/>
              <path class="cls-4" d="M286,525.59l9.79-12.45h-9.79v12.45ZM286,502.98h29.98l-1.96,2.71-40.23,51.14v-43.68h-7.2v-10.16h7.2v-11.99h12.2v11.99Z"/>
            </g>
            <g>
              <polygon class="cls-4" points="323.72 525.31 323.72 514.78 339.13 514.78 339.13 498.78 349.75 498.78 349.75 514.78 365.15 514.78 365.15 525.31 349.75 525.31 349.75 541.3 339.13 541.3 339.13 525.31 323.72 525.31"/>
              <path class="cls-4" d="M285.7,525.94l9.79-12.45h-9.79v12.45ZM285.7,503.32h29.98l-1.96,2.71-40.23,51.14v-43.68h-7.2v-10.16h7.2v-11.99h12.2v11.99Z"/>
            </g>
            <g>
              <polygon class="cls-4" points="323.42 525.65 323.42 515.12 338.83 515.12 338.83 499.13 349.45 499.13 349.45 515.12 364.86 515.12 364.86 525.65 349.45 525.65 349.45 541.64 338.83 541.64 338.83 525.65 323.42 525.65"/>
              <path class="cls-4" d="M285.4,526.28l9.79-12.45h-9.79v12.45ZM285.4,503.67h29.98l-1.96,2.71-40.23,51.14v-43.68h-7.2v-10.16h7.2v-11.99h12.2v11.99Z"/>
            </g>
            <g>
              <polygon class="cls-4" points="323.12 526 323.12 515.46 338.53 515.46 338.53 499.47 349.15 499.47 349.15 515.46 364.56 515.46 364.56 526 349.15 526 349.15 541.99 338.53 541.99 338.53 526 323.12 526"/>
              <path class="cls-4" d="M285.1,526.62l9.79-12.45h-9.79v12.45ZM285.1,504.01h29.98l-1.96,2.71-40.23,51.14v-43.68h-7.2v-10.16h7.2v-11.99h12.2v11.99Z"/>
            </g>
            <g>
              <polygon class="cls-4" points="322.82 526.34 322.82 515.8 338.23 515.8 338.23 499.81 348.85 499.81 348.85 515.8 364.26 515.8 364.26 526.34 348.85 526.34 348.85 542.33 338.23 542.33 338.23 526.34 322.82 526.34"/>
              <path class="cls-4" d="M284.8,526.96l9.79-12.45h-9.79v12.45ZM284.8,504.35h29.98l-1.96,2.71-40.23,51.14v-43.68h-7.2v-10.16h7.2v-11.99h12.2v11.99Z"/>
            </g>
            <g>
              <polygon class="cls-4" points="322.53 526.68 322.53 516.14 337.93 516.14 337.93 500.15 348.55 500.15 348.55 516.14 363.96 516.14 363.96 526.68 348.55 526.68 348.55 542.67 337.93 542.67 337.93 526.68 322.53 526.68"/>
              <path class="cls-4" d="M284.51,527.31l9.79-12.45h-9.79v12.45ZM284.51,504.69h29.98l-1.96,2.71-40.23,51.14v-43.68h-7.2v-10.16h7.2v-11.99h12.2v11.99Z"/>
            </g>
            <text class="cls-6" transform="translate(367.95 493.04) rotate(-180)"><tspan class="cls-9" x="0" y="0">+</tspan><tspan class="cls-11" x="50.01" y="0">4</tspan></text>
          </g>
        </g>
      </g>
      <g>
        <g>
          <rect class="cls-8" x="227.65" y="185.47" width="94.54" height="137.74" rx="10" ry="10"/>
          <rect class="cls-1" x="70.22" y="284.39" width="94.54" height="137.74" rx="10" ry="10"/>
          <rect class="cls-3" x="117.49" y="215.52" width="94.54" height="137.74" rx="10" ry="10"/>
          <rect class="cls-5" x="180.38" y="254.34" width="94.54" height="137.74" rx="10" ry="10"/>
        </g>
        <g>
          <rect class="cls-8" x="227.72" y="185.39" width="94.54" height="137.74" rx="10" ry="10"/>
          <rect class="cls-1" x="70.3" y="284.31" width="94.54" height="137.74" rx="10" ry="10"/>
          <rect class="cls-3" x="117.56" y="215.44" width="94.54" height="137.74" rx="10" ry="10"/>
          <rect class="cls-5" x="180.45" y="254.26" width="94.54" height="137.74" rx="10" ry="10"/>
        </g>
        <g>
          <rect class="cls-8" x="227.8" y="185.32" width="94.54" height="137.74" rx="10" ry="10"/>
          <rect class="cls-1" x="70.37" y="284.24" width="94.54" height="137.74" rx="10" ry="10"/>
          <rect class="cls-3" x="117.64" y="215.37" width="94.54" height="137.74" rx="10" ry="10"/>
          <rect class="cls-5" x="180.53" y="254.19" width="94.54" height="137.74" rx="10" ry="10"/>
        </g>
        <g>
          <rect class="cls-8" x="227.87" y="185.24" width="94.54" height="137.74" rx="10" ry="10"/>
          <rect class="cls-1" x="70.45" y="284.16" width="94.54" height="137.74" rx="10" ry="10"/>
          <rect class="cls-3" x="117.71" y="215.29" width="94.54" height="137.74" rx="10" ry="10"/>
          <rect class="cls-5" x="180.6" y="254.11" width="94.54" height="137.74" rx="10" ry="10"/>
        </g>
        <g>
          <rect class="cls-8" x="227.95" y="185.17" width="94.54" height="137.74" rx="10" ry="10"/>
          <rect class="cls-1" x="70.52" y="284.09" width="94.54" height="137.74" rx="10" ry="10"/>
          <rect class="cls-3" x="117.79" y="215.22" width="94.54" height="137.74" rx="10" ry="10"/>
          <rect class="cls-5" x="180.68" y="254.03" width="94.54" height="137.74" rx="10" ry="10"/>
        </g>
        <g>
          <rect class="cls-8" x="228.02" y="185.09" width="94.54" height="137.74" rx="10" ry="10"/>
          <rect class="cls-1" x="70.6" y="284.01" width="94.54" height="137.74" rx="10" ry="10"/>
          <rect class="cls-3" x="117.87" y="215.14" width="94.54" height="137.74" rx="10" ry="10"/>
          <rect class="cls-5" x="180.76" y="253.96" width="94.54" height="137.74" rx="10" ry="10"/>
        </g>
        <g>
          <rect class="cls-8" x="228.1" y="185.01" width="94.54" height="137.74" rx="10" ry="10"/>
          <rect class="cls-1" x="70.67" y="283.94" width="94.54" height="137.74" rx="10" ry="10"/>
          <rect class="cls-3" x="117.94" y="215.07" width="94.54" height="137.74" rx="10" ry="10"/>
          <rect class="cls-5" x="180.83" y="253.88" width="94.54" height="137.74" rx="10" ry="10"/>
        </g>
        <g>
          <rect class="cls-8" x="228.17" y="184.94" width="94.54" height="137.74" rx="10" ry="10"/>
          <rect class="cls-1" x="70.75" y="283.86" width="94.54" height="137.74" rx="10" ry="10"/>
          <rect class="cls-3" x="118.02" y="214.99" width="94.54" height="137.74" rx="10" ry="10"/>
          <rect class="cls-5" x="180.91" y="253.81" width="94.54" height="137.74" rx="10" ry="10"/>
        </g>
        <g>
          <rect class="cls-8" x="228.25" y="184.86" width="94.54" height="137.74" rx="10" ry="10"/>
          <rect class="cls-1" x="70.82" y="283.79" width="94.54" height="137.74" rx="10" ry="10"/>
          <rect class="cls-3" x="118.09" y="214.92" width="94.54" height="137.74" rx="10" ry="10"/>
          <rect class="cls-5" x="180.98" y="253.73" width="94.54" height="137.74" rx="10" ry="10"/>
        </g>
        <g>
          <rect class="cls-8" x="228.33" y="184.79" width="94.54" height="137.74" rx="10" ry="10"/>
          <rect class="cls-1" x="70.9" y="283.71" width="94.54" height="137.74" rx="10" ry="10"/>
          <rect class="cls-3" x="118.17" y="214.84" width="94.54" height="137.74" rx="10" ry="10"/>
          <rect class="cls-5" x="181.06" y="253.66" width="94.54" height="137.74" rx="10" ry="10"/>
        </g>
        <g>
          <rect class="cls-8" x="228.4" y="184.71" width="94.54" height="137.74" rx="10" ry="10"/>
          <rect class="cls-1" x="70.97" y="283.64" width="94.54" height="137.74" rx="10" ry="10"/>
          <rect class="cls-3" x="118.24" y="214.77" width="94.54" height="137.74" rx="10" ry="10"/>
          <rect class="cls-5" x="181.13" y="253.58" width="94.54" height="137.74" rx="10" ry="10"/>
        </g>
        <g>
          <rect class="cls-8" x="228.48" y="184.64" width="94.54" height="137.74" rx="10" ry="10"/>
          <rect class="cls-1" x="71.05" y="283.56" width="94.54" height="137.74" rx="10" ry="10"/>
          <rect class="cls-3" x="118.32" y="214.69" width="94.54" height="137.74" rx="10" ry="10"/>
          <rect class="cls-5" x="181.21" y="253.51" width="94.54" height="137.74" rx="10" ry="10"/>
        </g>
        <g>
          <rect class="cls-8" x="228.55" y="184.56" width="94.54" height="137.74" rx="10" ry="10"/>
          <rect class="cls-1" x="71.12" y="283.49" width="94.54" height="137.74" rx="10" ry="10"/>
          <rect class="cls-3" x="118.39" y="214.62" width="94.54" height="137.74" rx="10" ry="10"/>
          <rect class="cls-5" x="181.28" y="253.43" width="94.54" height="137.74" rx="10" ry="10"/>
        </g>
        <g>
          <rect class="cls-8" x="228.63" y="184.49" width="94.54" height="137.74" rx="10" ry="10"/>
          <rect class="cls-1" x="71.2" y="283.41" width="94.54" height="137.74" rx="10" ry="10"/>
          <rect class="cls-3" x="118.47" y="214.54" width="94.54" height="137.74" rx="10" ry="10"/>
          <rect class="cls-5" x="181.36" y="253.36" width="94.54" height="137.74" rx="10" ry="10"/>
        </g>
        <g>
          <rect class="cls-8" x="228.7" y="184.41" width="94.54" height="137.74" rx="10" ry="10"/>
          <rect class="cls-1" x="71.27" y="283.34" width="94.54" height="137.74" rx="10" ry="10"/>
          <rect class="cls-3" x="118.54" y="214.47" width="94.54" height="137.74" rx="10" ry="10"/>
          <rect class="cls-5" x="181.43" y="253.28" width="94.54" height="137.74" rx="10" ry="10"/>
        </g>
        <g>
          <rect class="cls-8" x="228.78" y="184.34" width="94.54" height="137.74" rx="10" ry="10"/>
          <rect class="cls-1" x="71.35" y="283.26" width="94.54" height="137.74" rx="10" ry="10"/>
          <rect class="cls-3" x="118.62" y="214.39" width="94.54" height="137.74" rx="10" ry="10"/>
          <rect class="cls-5" x="181.51" y="253.21" width="94.54" height="137.74" rx="10" ry="10"/>
        </g>
        <g>
          <rect class="cls-8" x="228.85" y="184.26" width="94.54" height="137.74" rx="10" ry="10"/>
          <rect class="cls-1" x="71.42" y="283.18" width="94.54" height="137.74" rx="10" ry="10"/>
          <rect class="cls-3" x="118.69" y="214.32" width="94.54" height="137.74" rx="10" ry="10"/>
          <rect class="cls-5" x="181.58" y="253.13" width="94.54" height="137.74" rx="10" ry="10"/>
        </g>
        <g>
          <rect class="cls-8" x="228.93" y="184.19" width="94.54" height="137.74" rx="10" ry="10"/>
          <rect class="cls-1" x="71.5" y="283.11" width="94.54" height="137.74" rx="10" ry="10"/>
          <rect class="cls-3" x="118.77" y="214.24" width="94.54" height="137.74" rx="10" ry="10"/>
          <rect class="cls-5" x="181.66" y="253.06" width="94.54" height="137.74" rx="10" ry="10"/>
        </g>
        <g>
          <rect class="cls-8" x="229" y="184.11" width="94.54" height="137.74" rx="10" ry="10"/>
          <rect class="cls-1" x="71.57" y="283.03" width="94.54" height="137.74" rx="10" ry="10"/>
          <rect class="cls-3" x="118.84" y="214.16" width="94.54" height="137.74" rx="10" ry="10"/>
          <rect class="cls-5" x="181.73" y="252.98" width="94.54" height="137.74" rx="10" ry="10"/>
        </g>
        <g>
          <rect class="cls-8" x="229.08" y="184.04" width="94.54" height="137.74" rx="10" ry="10"/>
          <rect class="cls-1" x="71.65" y="282.96" width="94.54" height="137.74" rx="10" ry="10"/>
          <rect class="cls-3" x="118.92" y="214.09" width="94.54" height="137.74" rx="10" ry="10"/>
          <rect class="cls-5" x="181.81" y="252.91" width="94.54" height="137.74" rx="10" ry="10"/>
        </g>
        <g>
          <rect class="cls-8" x="229.15" y="183.96" width="94.54" height="137.74" rx="10" ry="10"/>
          <rect class="cls-1" x="71.72" y="282.88" width="94.54" height="137.74" rx="10" ry="10"/>
          <rect class="cls-3" x="118.99" y="214.01" width="94.54" height="137.74" rx="10" ry="10"/>
          <rect class="cls-5" x="181.88" y="252.83" width="94.54" height="137.74" rx="10" ry="10"/>
        </g>
        <g>
          <rect class="cls-8" x="229.23" y="183.89" width="94.54" height="137.74" rx="10" ry="10"/>
          <rect class="cls-1" x="71.8" y="282.81" width="94.54" height="137.74" rx="10" ry="10"/>
          <rect class="cls-3" x="119.07" y="213.94" width="94.54" height="137.74" rx="10" ry="10"/>
          <rect class="cls-5" x="181.96" y="252.76" width="94.54" height="137.74" rx="10" ry="10"/>
        </g>
        <g>
          <rect class="cls-8" x="229.3" y="183.81" width="94.54" height="137.74" rx="10" ry="10"/>
          <rect class="cls-1" x="71.87" y="282.73" width="94.54" height="137.74" rx="10" ry="10"/>
          <rect class="cls-3" x="119.14" y="213.86" width="94.54" height="137.74" rx="10" ry="10"/>
          <rect class="cls-5" x="182.03" y="252.68" width="94.54" height="137.74" rx="10" ry="10"/>
        </g>
        <g>
          <rect class="cls-8" x="229.38" y="183.74" width="94.54" height="137.74" rx="10" ry="10"/>
          <rect class="cls-1" x="71.95" y="282.66" width="94.54" height="137.74" rx="10" ry="10"/>
          <rect class="cls-3" x="119.22" y="213.79" width="94.54" height="137.74" rx="10" ry="10"/>
          <rect class="cls-5" x="182.11" y="252.61" width="94.54" height="137.74" rx="10" ry="10"/>
        </g>
        <g>
          <rect class="cls-8" x="229.45" y="183.66" width="94.54" height="137.74" rx="10" ry="10"/>
          <rect class="cls-1" x="72.02" y="282.58" width="94.54" height="137.74" rx="10" ry="10"/>
          <rect class="cls-3" x="119.29" y="213.71" width="94.54" height="137.74" rx="10" ry="10"/>
          <rect class="cls-5" x="182.18" y="252.53" width="94.54" height="137.74" rx="10" ry="10"/>
        </g>
        <g>
          <rect class="cls-8" x="229.53" y="183.59" width="94.54" height="137.74" rx="10" ry="10"/>
          <rect class="cls-1" x="72.1" y="282.51" width="94.54" height="137.74" rx="10" ry="10"/>
          <rect class="cls-3" x="119.37" y="213.64" width="94.54" height="137.74" rx="10" ry="10"/>
          <rect class="cls-5" x="182.26" y="252.46" width="94.54" height="137.74" rx="10" ry="10"/>
        </g>
        <g>
          <rect class="cls-8" x="229.6" y="183.51" width="94.54" height="137.74" rx="10" ry="10"/>
          <rect class="cls-1" x="72.17" y="282.43" width="94.54" height="137.74" rx="10" ry="10"/>
          <rect class="cls-3" x="119.44" y="213.56" width="94.54" height="137.74" rx="10" ry="10"/>
          <rect class="cls-5" x="182.33" y="252.38" width="94.54" height="137.74" rx="10" ry="10"/>
        </g>
        <g>
          <rect class="cls-8" x="229.68" y="183.44" width="94.54" height="137.74" rx="10" ry="10"/>
          <rect class="cls-1" x="72.25" y="282.36" width="94.54" height="137.74" rx="10" ry="10"/>
          <rect class="cls-3" x="119.52" y="213.49" width="94.54" height="137.74" rx="10" ry="10"/>
          <rect class="cls-5" x="182.41" y="252.31" width="94.54" height="137.74" rx="10" ry="10"/>
        </g>
        <g>
          <rect class="cls-8" x="229.75" y="183.36" width="94.54" height="137.74" rx="10" ry="10"/>
          <rect class="cls-1" x="72.32" y="282.28" width="94.54" height="137.74" rx="10" ry="10"/>
          <rect class="cls-3" x="119.59" y="213.41" width="94.54" height="137.74" rx="10" ry="10"/>
          <rect class="cls-5" x="182.48" y="252.23" width="94.54" height="137.74" rx="10" ry="10"/>
        </g>
        <g>
          <rect class="cls-8" x="229.83" y="183.29" width="94.54" height="137.74" rx="10" ry="10"/>
          <rect class="cls-1" x="72.4" y="282.21" width="94.54" height="137.74" rx="10" ry="10"/>
          <rect class="cls-3" x="119.67" y="213.34" width="94.54" height="137.74" rx="10" ry="10"/>
          <rect class="cls-5" x="182.56" y="252.16" width="94.54" height="137.74" rx="10" ry="10"/>
        </g>
        <g>
          <rect class="cls-8" x="229.9" y="183.21" width="94.54" height="137.74" rx="10" ry="10"/>
          <rect class="cls-1" x="72.48" y="282.13" width="94.54" height="137.74" rx="10" ry="10"/>
          <rect class="cls-3" x="119.74" y="213.26" width="94.54" height="137.74" rx="10" ry="10"/>
          <rect class="cls-5" x="182.63" y="252.08" width="94.54" height="137.74" rx="10" ry="10"/>
        </g>
        <g>
          <rect class="cls-8" x="229.98" y="183.14" width="94.54" height="137.74" rx="10" ry="10"/>
          <rect class="cls-1" x="72.55" y="282.06" width="94.54" height="137.74" rx="10" ry="10"/>
          <rect class="cls-3" x="119.82" y="213.19" width="94.54" height="137.74" rx="10" ry="10"/>
          <rect class="cls-5" x="182.71" y="252" width="94.54" height="137.74" rx="10" ry="10"/>
        </g>
        <g>
          <rect class="cls-8" x="230.05" y="183.06" width="94.54" height="137.74" rx="10" ry="10"/>
          <rect class="cls-1" x="72.63" y="281.98" width="94.54" height="137.74" rx="10" ry="10"/>
          <rect class="cls-3" x="119.9" y="213.11" width="94.54" height="137.74" rx="10" ry="10"/>
          <rect class="cls-5" x="182.78" y="251.93" width="94.54" height="137.74" rx="10" ry="10"/>
        </g>
        <g>
          <rect class="cls-8" x="230.13" y="182.99" width="94.54" height="137.74" rx="10" ry="10"/>
          <rect class="cls-1" x="72.7" y="281.91" width="94.54" height="137.74" rx="10" ry="10"/>
          <rect class="cls-3" x="119.97" y="213.04" width="94.54" height="137.74" rx="10" ry="10"/>
          <rect class="cls-5" x="182.86" y="251.85" width="94.54" height="137.74" rx="10" ry="10"/>
        </g>
        <g>
          <rect class="cls-8" x="230.2" y="182.91" width="94.54" height="137.74" rx="10" ry="10"/>
          <rect class="cls-1" x="72.78" y="281.83" width="94.54" height="137.74" rx="10" ry="10"/>
          <rect class="cls-3" x="120.05" y="212.96" width="94.54" height="137.74" rx="10" ry="10"/>
          <rect class="cls-5" x="182.94" y="251.78" width="94.54" height="137.74" rx="10" ry="10"/>
        </g>
        <g>
          <rect class="cls-8" x="230.28" y="182.83" width="94.54" height="137.74" rx="10" ry="10"/>
          <rect class="cls-1" x="72.85" y="281.76" width="94.54" height="137.74" rx="10" ry="10"/>
          <rect class="cls-3" x="120.12" y="212.89" width="94.54" height="137.74" rx="10" ry="10"/>
          <rect class="cls-5" x="183.01" y="251.7" width="94.54" height="137.74" rx="10" ry="10"/>
        </g>
        <g>
          <rect class="cls-8" x="230.36" y="182.76" width="94.54" height="137.74" rx="10" ry="10"/>
          <rect class="cls-1" x="72.93" y="281.68" width="94.54" height="137.74" rx="10" ry="10"/>
          <rect class="cls-3" x="120.2" y="212.81" width="94.54" height="137.74" rx="10" ry="10"/>
          <rect class="cls-5" x="183.09" y="251.63" width="94.54" height="137.74" rx="10" ry="10"/>
        </g>
        <g>
          <rect class="cls-8" x="230.43" y="182.68" width="94.54" height="137.74" rx="10" ry="10"/>
          <rect class="cls-1" x="73" y="281.61" width="94.54" height="137.74" rx="10" ry="10"/>
          <rect class="cls-3" x="120.27" y="212.74" width="94.54" height="137.74" rx="10" ry="10"/>
          <rect class="cls-5" x="183.16" y="251.55" width="94.54" height="137.74" rx="10" ry="10"/>
        </g>
        <g>
          <rect class="cls-8" x="230.51" y="182.61" width="94.54" height="137.74" rx="10" ry="10"/>
          <rect class="cls-1" x="73.08" y="281.53" width="94.54" height="137.74" rx="10" ry="10"/>
          <rect class="cls-3" x="120.35" y="212.66" width="94.54" height="137.74" rx="10" ry="10"/>
          <rect class="cls-5" x="183.24" y="251.48" width="94.54" height="137.74" rx="10" ry="10"/>
        </g>
        <g>
          <rect class="cls-8" x="230.58" y="182.53" width="94.54" height="137.74" rx="10" ry="10"/>
          <rect class="cls-1" x="73.15" y="281.46" width="94.54" height="137.74" rx="10" ry="10"/>
          <rect class="cls-3" x="120.42" y="212.59" width="94.54" height="137.74" rx="10" ry="10"/>
          <rect class="cls-5" x="183.31" y="251.4" width="94.54" height="137.74" rx="10" ry="10"/>
        </g>
        <g>
          <rect class="cls-8" x="230.66" y="182.46" width="94.54" height="137.74" rx="10" ry="10"/>
          <rect class="cls-1" x="73.23" y="281.38" width="94.54" height="137.74" rx="10" ry="10"/>
          <rect class="cls-3" x="120.5" y="212.51" width="94.54" height="137.74" rx="10" ry="10"/>
          <rect class="cls-5" x="183.39" y="251.33" width="94.54" height="137.74" rx="10" ry="10"/>
        </g>
        <g>
          <rect class="cls-8" x="230.73" y="182.38" width="94.54" height="137.74" rx="10" ry="10"/>
          <rect class="cls-1" x="73.3" y="281.31" width="94.54" height="137.74" rx="10" ry="10"/>
          <rect class="cls-3" x="120.57" y="212.44" width="94.54" height="137.74" rx="10" ry="10"/>
          <rect class="cls-5" x="183.46" y="251.25" width="94.54" height="137.74" rx="10" ry="10"/>
        </g>
        <g>
          <rect class="cls-8" x="230.81" y="182.31" width="94.54" height="137.74" rx="10" ry="10"/>
          <rect class="cls-1" x="73.38" y="281.23" width="94.54" height="137.74" rx="10" ry="10"/>
          <rect class="cls-3" x="120.65" y="212.36" width="94.54" height="137.74" rx="10" ry="10"/>
          <rect class="cls-5" x="183.54" y="251.18" width="94.54" height="137.74" rx="10" ry="10"/>
        </g>
        <g>
          <rect class="cls-8" x="230.88" y="182.23" width="94.54" height="137.74" rx="10" ry="10"/>
          <rect class="cls-1" x="73.45" y="281.15" width="94.54" height="137.74" rx="10" ry="10"/>
          <rect class="cls-3" x="120.72" y="212.29" width="94.54" height="137.74" rx="10" ry="10"/>
          <rect class="cls-5" x="183.61" y="251.1" width="94.54" height="137.74" rx="10" ry="10"/>
        </g>
        <g>
          <rect class="cls-8" x="230.96" y="182.16" width="94.54" height="137.74" rx="10" ry="10"/>
          <rect class="cls-1" x="73.53" y="281.08" width="94.54" height="137.74" rx="10" ry="10"/>
          <rect class="cls-3" x="120.8" y="212.21" width="94.54" height="137.74" rx="10" ry="10"/>
          <rect class="cls-5" x="183.69" y="251.03" width="94.54" height="137.74" rx="10" ry="10"/>
        </g>
        <g>
          <rect class="cls-8" x="231.03" y="182.08" width="94.54" height="137.74" rx="10" ry="10"/>
          <rect class="cls-1" x="73.6" y="281" width="94.54" height="137.74" rx="10" ry="10"/>
          <rect class="cls-3" x="120.87" y="212.14" width="94.54" height="137.74" rx="10" ry="10"/>
          <rect class="cls-5" x="183.76" y="250.95" width="94.54" height="137.74" rx="10" ry="10"/>
        </g>
        <g>
          <rect class="cls-8" x="231.11" y="182.01" width="94.54" height="137.74" rx="10" ry="10"/>
          <rect class="cls-1" x="73.68" y="280.93" width="94.54" height="137.74" rx="10" ry="10"/>
          <rect class="cls-3" x="120.95" y="212.06" width="94.54" height="137.74" rx="10" ry="10"/>
          <rect class="cls-5" x="183.84" y="250.88" width="94.54" height="137.74" rx="10" ry="10"/>
        </g>
        <g>
          <rect class="cls-8" x="231.18" y="181.93" width="94.54" height="137.74" rx="10" ry="10"/>
          <rect class="cls-1" x="73.75" y="280.85" width="94.54" height="137.74" rx="10" ry="10"/>
          <rect class="cls-3" x="121.02" y="211.98" width="94.54" height="137.74" rx="10" ry="10"/>
          <rect class="cls-5" x="183.91" y="250.8" width="94.54" height="137.74" rx="10" ry="10"/>
        </g>
        <g>
          <rect class="cls-8" x="231.26" y="181.86" width="94.54" height="137.74" rx="10" ry="10"/>
          <rect class="cls-1" x="73.83" y="280.78" width="94.54" height="137.74" rx="10" ry="10"/>
          <rect class="cls-3" x="121.1" y="211.91" width="94.54" height="137.74" rx="10" ry="10"/>
          <rect class="cls-5" x="183.99" y="250.73" width="94.54" height="137.74" rx="10" ry="10"/>
        </g>
        <g>
          <rect class="cls-8" x="231.33" y="181.78" width="94.54" height="137.74" rx="10" ry="10"/>
          <rect class="cls-1" x="73.9" y="280.7" width="94.54" height="137.74" rx="10" ry="10"/>
          <rect class="cls-3" x="121.17" y="211.83" width="94.54" height="137.74" rx="10" ry="10"/>
          <rect class="cls-5" x="184.06" y="250.65" width="94.54" height="137.74" rx="10" ry="10"/>
        </g>
        <g>
          <rect class="cls-8" x="231.41" y="181.71" width="94.54" height="137.74" rx="10" ry="10"/>
          <rect class="cls-1" x="73.98" y="280.63" width="94.54" height="137.74" rx="10" ry="10"/>
          <rect class="cls-3" x="121.25" y="211.76" width="94.54" height="137.74" rx="10" ry="10"/>
          <rect class="cls-5" x="184.14" y="250.58" width="94.54" height="137.74" rx="10" ry="10"/>
        </g>
        <g>
          <rect class="cls-8" x="231.48" y="181.63" width="94.54" height="137.74" rx="10" ry="10"/>
          <rect class="cls-1" x="74.05" y="280.55" width="94.54" height="137.74" rx="10" ry="10"/>
          <rect class="cls-3" x="121.32" y="211.68" width="94.54" height="137.74" rx="10" ry="10"/>
          <rect class="cls-5" x="184.21" y="250.5" width="94.54" height="137.74" rx="10" ry="10"/>
        </g>
        <g>
          <rect class="cls-8" x="231.56" y="181.56" width="94.54" height="137.74" rx="10" ry="10"/>
          <rect class="cls-1" x="74.13" y="280.48" width="94.54" height="137.74" rx="10" ry="10"/>
          <rect class="cls-3" x="121.4" y="211.61" width="94.54" height="137.74" rx="10" ry="10"/>
          <rect class="cls-5" x="184.29" y="250.43" width="94.54" height="137.74" rx="10" ry="10"/>
        </g>
        <g>
          <rect class="cls-8" x="231.63" y="181.48" width="94.54" height="137.74" rx="10" ry="10"/>
          <rect class="cls-1" x="74.2" y="280.4" width="94.54" height="137.74" rx="10" ry="10"/>
          <rect class="cls-3" x="121.47" y="211.53" width="94.54" height="137.74" rx="10" ry="10"/>
          <rect class="cls-5" x="184.36" y="250.35" width="94.54" height="137.74" rx="10" ry="10"/>
        </g>
        <g>
          <rect class="cls-8" x="231.71" y="181.41" width="94.54" height="137.74" rx="10" ry="10"/>
          <rect class="cls-1" x="74.28" y="280.33" width="94.54" height="137.74" rx="10" ry="10"/>
          <rect class="cls-3" x="121.55" y="211.46" width="94.54" height="137.74" rx="10" ry="10"/>
          <rect class="cls-5" x="184.44" y="250.28" width="94.54" height="137.74" rx="10" ry="10"/>
        </g>
        <g>
          <rect class="cls-8" x="231.78" y="181.33" width="94.54" height="137.74" rx="10" ry="10"/>
          <rect class="cls-1" x="74.35" y="280.25" width="94.54" height="137.74" rx="10" ry="10"/>
          <rect class="cls-3" x="121.62" y="211.38" width="94.54" height="137.74" rx="10" ry="10"/>
          <rect class="cls-5" x="184.51" y="250.2" width="94.54" height="137.74" rx="10" ry="10"/>
        </g>
        <g>
          <rect class="cls-8" x="231.86" y="181.26" width="94.54" height="137.74" rx="10" ry="10"/>
          <rect class="cls-1" x="74.43" y="280.18" width="94.54" height="137.74" rx="10" ry="10"/>
          <rect class="cls-3" x="121.7" y="211.31" width="94.54" height="137.74" rx="10" ry="10"/>
          <rect class="cls-5" x="184.59" y="250.13" width="94.54" height="137.74" rx="10" ry="10"/>
        </g>
        <g>
          <rect class="cls-8" x="231.93" y="181.18" width="94.54" height="137.74" rx="10" ry="10"/>
          <rect class="cls-1" x="74.5" y="280.1" width="94.54" height="137.74" rx="10" ry="10"/>
          <rect class="cls-3" x="121.77" y="211.23" width="94.54" height="137.74" rx="10" ry="10"/>
          <rect class="cls-5" x="184.66" y="250.05" width="94.54" height="137.74" rx="10" ry="10"/>
        </g>
        <g>
          <rect class="cls-8" x="232.01" y="181.11" width="94.54" height="137.74" rx="10" ry="10"/>
          <rect class="cls-1" x="74.58" y="280.03" width="94.54" height="137.74" rx="10" ry="10"/>
          <rect class="cls-3" x="121.85" y="211.16" width="94.54" height="137.74" rx="10" ry="10"/>
          <rect class="cls-5" x="184.74" y="249.98" width="94.54" height="137.74" rx="10" ry="10"/>
        </g>
        <g>
          <rect class="cls-8" x="232.08" y="181.03" width="94.54" height="137.74" rx="10" ry="10"/>
          <rect class="cls-1" x="74.66" y="279.95" width="94.54" height="137.74" rx="10" ry="10"/>
          <rect class="cls-3" x="121.92" y="211.08" width="94.54" height="137.74" rx="10" ry="10"/>
          <rect class="cls-5" x="184.81" y="249.9" width="94.54" height="137.74" rx="10" ry="10"/>
        </g>
        <g>
          <rect class="cls-8" x="232.16" y="180.96" width="94.54" height="137.74" rx="10" ry="10"/>
          <rect class="cls-1" x="74.73" y="279.88" width="94.54" height="137.74" rx="10" ry="10"/>
          <rect class="cls-3" x="122" y="211.01" width="94.54" height="137.74" rx="10" ry="10"/>
          <rect class="cls-5" x="184.89" y="249.82" width="94.54" height="137.74" rx="10" ry="10"/>
        </g>
        <g>
          <rect class="cls-8" x="232.23" y="180.88" width="94.54" height="137.74" rx="10" ry="10"/>
          <rect class="cls-1" x="74.81" y="279.8" width="94.54" height="137.74" rx="10" ry="10"/>
          <rect class="cls-3" x="122.08" y="210.93" width="94.54" height="137.74" rx="10" ry="10"/>
          <rect class="cls-5" x="184.96" y="249.75" width="94.54" height="137.74" rx="10" ry="10"/>
        </g>
        <g>
          <rect class="cls-8" x="232.31" y="180.8" width="94.54" height="137.74" rx="10" ry="10"/>
          <rect class="cls-1" x="74.88" y="279.73" width="94.54" height="137.74" rx="10" ry="10"/>
          <rect class="cls-3" x="122.15" y="210.86" width="94.54" height="137.74" rx="10" ry="10"/>
          <rect class="cls-5" x="185.04" y="249.67" width="94.54" height="137.74" rx="10" ry="10"/>
        </g>
        <g>
          <rect class="cls-8" x="232.38" y="180.73" width="94.54" height="137.74" rx="10" ry="10"/>
          <rect class="cls-1" x="74.96" y="279.65" width="94.54" height="137.74" rx="10" ry="10"/>
          <rect class="cls-3" x="122.23" y="210.78" width="94.54" height="137.74" rx="10" ry="10"/>
          <rect class="cls-5" x="185.12" y="249.6" width="94.54" height="137.74" rx="10" ry="10"/>
        </g>
        <g>
          <rect class="cls-8" x="232.46" y="180.65" width="94.54" height="137.74" rx="10" ry="10"/>
          <rect class="cls-1" x="75.03" y="279.58" width="94.54" height="137.74" rx="10" ry="10"/>
          <rect class="cls-3" x="122.3" y="210.71" width="94.54" height="137.74" rx="10" ry="10"/>
          <rect class="cls-5" x="185.19" y="249.52" width="94.54" height="137.74" rx="10" ry="10"/>
        </g>
        <g>
          <rect class="cls-8" x="232.54" y="180.58" width="94.54" height="137.74" rx="10" ry="10"/>
          <rect class="cls-1" x="75.11" y="279.5" width="94.54" height="137.74" rx="10" ry="10"/>
          <rect class="cls-3" x="122.38" y="210.63" width="94.54" height="137.74" rx="10" ry="10"/>
          <rect class="cls-5" x="185.27" y="249.45" width="94.54" height="137.74" rx="10" ry="10"/>
        </g>
        <g>
          <rect class="cls-8" x="232.61" y="180.5" width="94.54" height="137.74" rx="10" ry="10"/>
          <rect class="cls-1" x="75.18" y="279.43" width="94.54" height="137.74" rx="10" ry="10"/>
          <rect class="cls-3" x="122.45" y="210.56" width="94.54" height="137.74" rx="10" ry="10"/>
          <rect class="cls-5" x="185.34" y="249.37" width="94.54" height="137.74" rx="10" ry="10"/>
        </g>
        <g>
          <rect class="cls-8" x="232.69" y="180.43" width="94.54" height="137.74" rx="10" ry="10"/>
          <rect class="cls-1" x="75.26" y="279.35" width="94.54" height="137.74" rx="10" ry="10"/>
          <rect class="cls-3" x="122.53" y="210.48" width="94.54" height="137.74" rx="10" ry="10"/>
          <rect class="cls-5" x="185.42" y="249.3" width="94.54" height="137.74" rx="10" ry="10"/>
        </g>
        <g>
          <rect class="cls-8" x="232.76" y="180.35" width="94.54" height="137.74" rx="10" ry="10"/>
          <rect class="cls-1" x="75.33" y="279.28" width="94.54" height="137.74" rx="10" ry="10"/>
          <rect class="cls-3" x="122.6" y="210.41" width="94.54" height="137.74" rx="10" ry="10"/>
          <rect class="cls-5" x="185.49" y="249.22" width="94.54" height="137.74" rx="10" ry="10"/>
        </g>
        <g>
          <rect class="cls-8" x="232.84" y="180.28" width="94.54" height="137.74" rx="10" ry="10"/>
          <rect class="cls-1" x="75.41" y="279.2" width="94.54" height="137.74" rx="10" ry="10"/>
          <rect class="cls-3" x="122.68" y="210.33" width="94.54" height="137.74" rx="10" ry="10"/>
          <rect class="cls-5" x="185.57" y="249.15" width="94.54" height="137.74" rx="10" ry="10"/>
        </g>
        <g>
          <rect class="cls-8" x="232.91" y="180.2" width="94.54" height="137.74" rx="10" ry="10"/>
          <rect class="cls-1" x="75.48" y="279.13" width="94.54" height="137.74" rx="10" ry="10"/>
          <rect class="cls-3" x="122.75" y="210.26" width="94.54" height="137.74" rx="10" ry="10"/>
          <rect class="cls-5" x="185.64" y="249.07" width="94.54" height="137.74" rx="10" ry="10"/>
        </g>
        <g>
          <rect class="cls-8" x="232.99" y="180.13" width="94.54" height="137.74" rx="10" ry="10"/>
          <rect class="cls-1" x="75.56" y="279.05" width="94.54" height="137.74" rx="10" ry="10"/>
          <rect class="cls-3" x="122.83" y="210.18" width="94.54" height="137.74" rx="10" ry="10"/>
          <rect class="cls-5" x="185.72" y="249" width="94.54" height="137.74" rx="10" ry="10"/>
        </g>
        <g>
          <rect class="cls-8" x="233.06" y="180.05" width="94.54" height="137.74" rx="10" ry="10"/>
          <rect class="cls-1" x="75.63" y="278.97" width="94.54" height="137.74" rx="10" ry="10"/>
          <rect class="cls-3" x="122.9" y="210.11" width="94.54" height="137.74" rx="10" ry="10"/>
          <rect class="cls-5" x="185.79" y="248.92" width="94.54" height="137.74" rx="10" ry="10"/>
        </g>
        <g>
          <rect class="cls-8" x="233.14" y="179.98" width="94.54" height="137.74" rx="10" ry="10"/>
          <rect class="cls-1" x="75.71" y="278.9" width="94.54" height="137.74" rx="10" ry="10"/>
          <rect class="cls-3" x="122.98" y="210.03" width="94.54" height="137.74" rx="10" ry="10"/>
          <rect class="cls-5" x="185.87" y="248.85" width="94.54" height="137.74" rx="10" ry="10"/>
        </g>
        <g>
          <rect class="cls-8" x="233.21" y="179.9" width="94.54" height="137.74" rx="10" ry="10"/>
          <rect class="cls-1" x="75.78" y="278.82" width="94.54" height="137.74" rx="10" ry="10"/>
          <rect class="cls-3" x="123.05" y="209.95" width="94.54" height="137.74" rx="10" ry="10"/>
          <rect class="cls-5" x="185.94" y="248.77" width="94.54" height="137.74" rx="10" ry="10"/>
        </g>
        <g>
          <rect class="cls-8" x="233.29" y="179.83" width="94.54" height="137.74" rx="10" ry="10"/>
          <rect class="cls-1" x="75.86" y="278.75" width="94.54" height="137.74" rx="10" ry="10"/>
          <rect class="cls-3" x="123.13" y="209.88" width="94.54" height="137.74" rx="10" ry="10"/>
          <rect class="cls-5" x="186.02" y="248.7" width="94.54" height="137.74" rx="10" ry="10"/>
        </g>
        <g>
          <rect class="cls-8" x="233.36" y="179.75" width="94.54" height="137.74" rx="10" ry="10"/>
          <rect class="cls-1" x="75.93" y="278.67" width="94.54" height="137.74" rx="10" ry="10"/>
          <rect class="cls-3" x="123.2" y="209.8" width="94.54" height="137.74" rx="10" ry="10"/>
          <rect class="cls-5" x="186.09" y="248.62" width="94.54" height="137.74" rx="10" ry="10"/>
        </g>
        <g>
          <rect class="cls-8" x="233.44" y="179.68" width="94.54" height="137.74" rx="10" ry="10"/>
          <rect class="cls-1" x="76.01" y="278.6" width="94.54" height="137.74" rx="10" ry="10"/>
          <rect class="cls-3" x="123.28" y="209.73" width="94.54" height="137.74" rx="10" ry="10"/>
          <rect class="cls-5" x="186.17" y="248.55" width="94.54" height="137.74" rx="10" ry="10"/>
        </g>
        <g>
          <rect class="cls-8" x="233.51" y="179.6" width="94.54" height="137.74" rx="10" ry="10"/>
          <rect class="cls-1" x="76.08" y="278.52" width="94.54" height="137.74" rx="10" ry="10"/>
          <rect class="cls-3" x="123.35" y="209.65" width="94.54" height="137.74" rx="10" ry="10"/>
          <rect class="cls-5" x="186.24" y="248.47" width="94.54" height="137.74" rx="10" ry="10"/>
        </g>
        <g>
          <rect class="cls-8" x="233.59" y="179.53" width="94.54" height="137.74" rx="10" ry="10"/>
          <rect class="cls-1" x="76.16" y="278.45" width="94.54" height="137.74" rx="10" ry="10"/>
          <rect class="cls-3" x="123.43" y="209.58" width="94.54" height="137.74" rx="10" ry="10"/>
          <rect class="cls-5" x="186.32" y="248.4" width="94.54" height="137.74" rx="10" ry="10"/>
        </g>
        <g>
          <rect class="cls-8" x="233.66" y="179.45" width="94.54" height="137.74" rx="10" ry="10"/>
          <rect class="cls-1" x="76.23" y="278.37" width="94.54" height="137.74" rx="10" ry="10"/>
          <rect class="cls-3" x="123.5" y="209.5" width="94.54" height="137.74" rx="10" ry="10"/>
          <rect class="cls-5" x="186.39" y="248.32" width="94.54" height="137.74" rx="10" ry="10"/>
        </g>
        <g>
          <rect class="cls-8" x="233.74" y="179.38" width="94.54" height="137.74" rx="10" ry="10"/>
          <rect class="cls-1" x="76.31" y="278.3" width="94.54" height="137.74" rx="10" ry="10"/>
          <rect class="cls-3" x="123.58" y="209.43" width="94.54" height="137.74" rx="10" ry="10"/>
          <rect class="cls-5" x="186.47" y="248.25" width="94.54" height="137.74" rx="10" ry="10"/>
        </g>
        <g>
          <rect class="cls-8" x="233.81" y="179.3" width="94.54" height="137.74" rx="10" ry="10"/>
          <rect class="cls-1" x="76.38" y="278.22" width="94.54" height="137.74" rx="10" ry="10"/>
          <rect class="cls-3" x="123.65" y="209.35" width="94.54" height="137.74" rx="10" ry="10"/>
          <rect class="cls-5" x="186.54" y="248.17" width="94.54" height="137.74" rx="10" ry="10"/>
        </g>
        <g>
          <rect class="cls-8" x="233.89" y="179.23" width="94.54" height="137.74" rx="10" ry="10"/>
          <rect class="cls-1" x="76.46" y="278.15" width="94.54" height="137.74" rx="10" ry="10"/>
          <rect class="cls-3" x="123.73" y="209.28" width="94.54" height="137.74" rx="10" ry="10"/>
          <rect class="cls-5" x="186.62" y="248.1" width="94.54" height="137.74" rx="10" ry="10"/>
        </g>
        <g>
          <rect class="cls-8" x="233.96" y="179.15" width="94.54" height="137.74" rx="10" ry="10"/>
          <rect class="cls-1" x="76.53" y="278.07" width="94.54" height="137.74" rx="10" ry="10"/>
          <rect class="cls-3" x="123.8" y="209.2" width="94.54" height="137.74" rx="10" ry="10"/>
          <rect class="cls-5" x="186.69" y="248.02" width="94.54" height="137.74" rx="10" ry="10"/>
        </g>
        <g>
          <rect class="cls-8" x="234.04" y="179.08" width="94.54" height="137.74" rx="10" ry="10"/>
          <rect class="cls-1" x="76.61" y="278" width="94.54" height="137.74" rx="10" ry="10"/>
          <rect class="cls-3" x="123.88" y="209.13" width="94.54" height="137.74" rx="10" ry="10"/>
          <rect class="cls-5" x="186.77" y="247.95" width="94.54" height="137.74" rx="10" ry="10"/>
        </g>
        <g>
          <rect class="cls-8" x="234.11" y="179" width="94.54" height="137.74" rx="10" ry="10"/>
          <rect class="cls-1" x="76.68" y="277.92" width="94.54" height="137.74" rx="10" ry="10"/>
          <rect class="cls-3" x="123.95" y="209.05" width="94.54" height="137.74" rx="10" ry="10"/>
          <rect class="cls-5" x="186.84" y="247.87" width="94.54" height="137.74" rx="10" ry="10"/>
        </g>
        <g>
          <rect class="cls-8" x="234.19" y="178.93" width="94.54" height="137.74" rx="10" ry="10"/>
          <rect class="cls-1" x="76.76" y="277.85" width="94.54" height="137.74" rx="10" ry="10"/>
          <rect class="cls-3" x="124.03" y="208.98" width="94.54" height="137.74" rx="10" ry="10"/>
          <rect class="cls-5" x="186.92" y="247.8" width="94.54" height="137.74" rx="10" ry="10"/>
        </g>
        <g>
          <rect class="cls-8" x="234.26" y="178.85" width="94.54" height="137.74" rx="10" ry="10"/>
          <rect class="cls-1" x="76.84" y="277.77" width="94.54" height="137.74" rx="10" ry="10"/>
          <rect class="cls-3" x="124.1" y="208.9" width="94.54" height="137.74" rx="10" ry="10"/>
          <rect class="cls-5" x="186.99" y="247.72" width="94.54" height="137.74" rx="10" ry="10"/>
        </g>
        <g>
          <rect class="cls-8" x="234.34" y="178.78" width="94.54" height="137.74" rx="10" ry="10"/>
          <rect class="cls-1" x="76.91" y="277.7" width="94.54" height="137.74" rx="10" ry="10"/>
          <rect class="cls-3" x="124.18" y="208.83" width="94.54" height="137.74" rx="10" ry="10"/>
          <rect class="cls-5" x="187.07" y="247.64" width="94.54" height="137.74" rx="10" ry="10"/>
        </g>
        <g>
          <rect class="cls-8" x="234.41" y="178.7" width="94.54" height="137.74" rx="10" ry="10"/>
          <rect class="cls-1" x="76.99" y="277.62" width="94.54" height="137.74" rx="10" ry="10"/>
          <rect class="cls-3" x="124.26" y="208.75" width="94.54" height="137.74" rx="10" ry="10"/>
          <rect class="cls-5" x="187.14" y="247.57" width="94.54" height="137.74" rx="10" ry="10"/>
        </g>
        <g>
          <rect class="cls-8" x="234.49" y="178.62" width="94.54" height="137.74" rx="10" ry="10"/>
          <rect class="cls-1" x="77.06" y="277.55" width="94.54" height="137.74" rx="10" ry="10"/>
          <rect class="cls-3" x="124.33" y="208.68" width="94.54" height="137.74" rx="10" ry="10"/>
          <rect class="cls-5" x="187.22" y="247.49" width="94.54" height="137.74" rx="10" ry="10"/>
        </g>
        <g>
          <rect class="cls-8" x="234.56" y="178.55" width="94.54" height="137.74" rx="10" ry="10"/>
          <rect class="cls-1" x="77.14" y="277.47" width="94.54" height="137.74" rx="10" ry="10"/>
          <rect class="cls-3" x="124.41" y="208.6" width="94.54" height="137.74" rx="10" ry="10"/>
          <rect class="cls-5" x="187.3" y="247.42" width="94.54" height="137.74" rx="10" ry="10"/>
        </g>
        <g>
          <rect class="cls-8" x="234.64" y="178.47" width="94.54" height="137.74" rx="10" ry="10"/>
          <rect class="cls-1" x="77.21" y="277.4" width="94.54" height="137.74" rx="10" ry="10"/>
          <rect class="cls-3" x="124.48" y="208.53" width="94.54" height="137.74" rx="10" ry="10"/>
          <rect class="cls-5" x="187.37" y="247.34" width="94.54" height="137.74" rx="10" ry="10"/>
        </g>
        <g>
          <rect class="cls-8" x="234.72" y="178.4" width="94.54" height="137.74" rx="10" ry="10"/>
          <rect class="cls-1" x="77.29" y="277.32" width="94.54" height="137.74" rx="10" ry="10"/>
          <rect class="cls-3" x="124.56" y="208.45" width="94.54" height="137.74" rx="10" ry="10"/>
          <rect class="cls-5" x="187.45" y="247.27" width="94.54" height="137.74" rx="10" ry="10"/>
        </g>
        <g>
          <rect class="cls-8" x="234.79" y="178.32" width="94.54" height="137.74" rx="10" ry="10"/>
          <rect class="cls-1" x="77.36" y="277.25" width="94.54" height="137.74" rx="10" ry="10"/>
          <rect class="cls-3" x="124.63" y="208.38" width="94.54" height="137.74" rx="10" ry="10"/>
          <rect class="cls-5" x="187.52" y="247.19" width="94.54" height="137.74" rx="10" ry="10"/>
        </g>
        <g>
          <rect class="cls-8" x="234.87" y="178.25" width="94.54" height="137.74" rx="10" ry="10"/>
          <rect class="cls-1" x="77.44" y="277.17" width="94.54" height="137.74" rx="10" ry="10"/>
          <rect class="cls-3" x="124.71" y="208.3" width="94.54" height="137.74" rx="10" ry="10"/>
          <rect class="cls-5" x="187.6" y="247.12" width="94.54" height="137.74" rx="10" ry="10"/>
        </g>
        <g>
          <rect class="cls-8" x="234.94" y="178.17" width="94.54" height="137.74" rx="10" ry="10"/>
          <rect class="cls-1" x="77.51" y="277.1" width="94.54" height="137.74" rx="10" ry="10"/>
          <rect class="cls-3" x="124.78" y="208.23" width="94.54" height="137.74" rx="10" ry="10"/>
          <rect class="cls-5" x="187.67" y="247.04" width="94.54" height="137.74" rx="10" ry="10"/>
        </g>
        <g>
          <rect class="cls-8" x="235.02" y="178.1" width="94.54" height="137.74" rx="10" ry="10"/>
          <rect class="cls-1" x="77.59" y="277.02" width="94.54" height="137.74" rx="10" ry="10"/>
          <rect class="cls-3" x="124.86" y="208.15" width="94.54" height="137.74" rx="10" ry="10"/>
          <rect class="cls-5" x="187.75" y="246.97" width="94.54" height="137.74" rx="10" ry="10"/>
        </g>
        <g>
          <rect class="cls-8" x="235.09" y="178.02" width="94.54" height="137.74" rx="10" ry="10"/>
          <rect class="cls-1" x="77.66" y="276.95" width="94.54" height="137.74" rx="10" ry="10"/>
          <rect class="cls-3" x="124.93" y="208.08" width="94.54" height="137.74" rx="10" ry="10"/>
          <rect class="cls-5" x="187.82" y="246.89" width="94.54" height="137.74" rx="10" ry="10"/>
        </g>
        <g>
          <rect class="cls-8" x="235.17" y="177.95" width="94.54" height="137.74" rx="10" ry="10"/>
          <rect class="cls-1" x="77.74" y="276.87" width="94.54" height="137.74" rx="10" ry="10"/>
          <rect class="cls-3" x="125.01" y="208" width="94.54" height="137.74" rx="10" ry="10"/>
          <rect class="cls-5" x="187.9" y="246.82" width="94.54" height="137.74" rx="10" ry="10"/>
        </g>
        <g>
          <rect class="cls-8" x="235.24" y="177.87" width="94.54" height="137.74" rx="10" ry="10"/>
          <rect class="cls-1" x="77.81" y="276.79" width="94.54" height="137.74" rx="10" ry="10"/>
          <rect class="cls-3" x="125.08" y="207.93" width="94.54" height="137.74" rx="10" ry="10"/>
          <rect class="cls-5" x="187.97" y="246.74" width="94.54" height="137.74" rx="10" ry="10"/>
        </g>
      </g>
    </g>
  </g>
</svg>